<mxfile host="app.diagrams.net" modified="2022-11-08T07:27:00.040Z" agent="5.0 (X11; Ubuntu)" etag="WR2FLgFm2niA20PKTEZq" version="20.5.3" type="github">
  <diagram id="C5RBs43oDa-KdzZeNtuy" name="Page-1">
    <mxGraphModel dx="971" dy="575" grid="1" gridSize="10" guides="1" tooltips="1" connect="1" arrows="1" fold="1" page="1" pageScale="1" pageWidth="827" pageHeight="1169" math="0" shadow="0">
      <root>
        <mxCell id="WIyWlLk6GJQsqaUBKTNV-0" />
        <mxCell id="WIyWlLk6GJQsqaUBKTNV-1" parent="WIyWlLk6GJQsqaUBKTNV-0" />
        <mxCell id="eUNMecRaQqSU6E6CGB5E-10" style="edgeStyle=orthogonalEdgeStyle;rounded=0;orthogonalLoop=1;jettySize=auto;html=1;" edge="1" parent="WIyWlLk6GJQsqaUBKTNV-1" source="eUNMecRaQqSU6E6CGB5E-6">
          <mxGeometry relative="1" as="geometry">
            <mxPoint x="130" y="127.5" as="targetPoint" />
          </mxGeometry>
        </mxCell>
        <mxCell id="eUNMecRaQqSU6E6CGB5E-14" style="edgeStyle=orthogonalEdgeStyle;rounded=0;orthogonalLoop=1;jettySize=auto;html=1;exitX=1;exitY=0;exitDx=0;exitDy=0;entryX=0;entryY=0.5;entryDx=0;entryDy=0;" edge="1" parent="WIyWlLk6GJQsqaUBKTNV-1" source="eUNMecRaQqSU6E6CGB5E-6" target="eUNMecRaQqSU6E6CGB5E-13">
          <mxGeometry relative="1" as="geometry" />
        </mxCell>
        <mxCell id="eUNMecRaQqSU6E6CGB5E-20" style="edgeStyle=orthogonalEdgeStyle;rounded=0;orthogonalLoop=1;jettySize=auto;html=1;exitX=1;exitY=1;exitDx=0;exitDy=0;entryX=0;entryY=0.5;entryDx=0;entryDy=0;" edge="1" parent="WIyWlLk6GJQsqaUBKTNV-1" source="eUNMecRaQqSU6E6CGB5E-6" target="eUNMecRaQqSU6E6CGB5E-19">
          <mxGeometry relative="1" as="geometry" />
        </mxCell>
        <mxCell id="eUNMecRaQqSU6E6CGB5E-6" value="Voting" style="rounded=0;whiteSpace=wrap;html=1;" vertex="1" parent="WIyWlLk6GJQsqaUBKTNV-1">
          <mxGeometry x="10" y="107.5" width="90" height="40" as="geometry" />
        </mxCell>
        <mxCell id="eUNMecRaQqSU6E6CGB5E-13" value="Immediate" style="swimlane;whiteSpace=wrap;html=1;" vertex="1" parent="WIyWlLk6GJQsqaUBKTNV-1">
          <mxGeometry x="130" y="10" width="190" height="70" as="geometry" />
        </mxCell>
        <mxCell id="eUNMecRaQqSU6E6CGB5E-15" value="&lt;div&gt;Vote Points/Server Credits&lt;/div&gt;Key for voting on all sites" style="rounded=0;whiteSpace=wrap;html=1;" vertex="1" parent="eUNMecRaQqSU6E6CGB5E-13">
          <mxGeometry y="20" width="190" height="50" as="geometry" />
        </mxCell>
        <mxCell id="eUNMecRaQqSU6E6CGB5E-16" value="Long-term" style="swimlane;whiteSpace=wrap;html=1;" vertex="1" parent="WIyWlLk6GJQsqaUBKTNV-1">
          <mxGeometry x="130" y="92.5" width="190" height="70" as="geometry" />
        </mxCell>
        <mxCell id="eUNMecRaQqSU6E6CGB5E-17" value="&lt;div&gt;Streak rewards&lt;/div&gt;&lt;div&gt;Milestone rewards&lt;br&gt;&lt;/div&gt;" style="rounded=0;whiteSpace=wrap;html=1;" vertex="1" parent="eUNMecRaQqSU6E6CGB5E-16">
          <mxGeometry y="20" width="190" height="50" as="geometry" />
        </mxCell>
        <mxCell id="eUNMecRaQqSU6E6CGB5E-18" value="Server" style="swimlane;whiteSpace=wrap;html=1;" vertex="1" parent="WIyWlLk6GJQsqaUBKTNV-1">
          <mxGeometry x="130" y="180" width="190" height="70" as="geometry">
            <mxRectangle x="380" y="210" width="80" height="30" as="alternateBounds" />
          </mxGeometry>
        </mxCell>
        <mxCell id="eUNMecRaQqSU6E6CGB5E-19" value="&lt;div&gt;Vote Party&lt;/div&gt;&lt;div&gt;Milestone rewards&lt;br&gt;&lt;/div&gt;" style="rounded=0;whiteSpace=wrap;html=1;" vertex="1" parent="eUNMecRaQqSU6E6CGB5E-18">
          <mxGeometry y="20" width="190" height="50" as="geometry" />
        </mxCell>
        <mxCell id="eUNMecRaQqSU6E6CGB5E-23" value="Things you can buy with credits" style="swimlane;fontStyle=0;childLayout=stackLayout;horizontal=1;startSize=30;horizontalStack=0;resizeParent=1;resizeParentMax=0;resizeLast=0;collapsible=1;marginBottom=0;whiteSpace=wrap;html=1;" vertex="1" parent="WIyWlLk6GJQsqaUBKTNV-1">
          <mxGeometry x="390" y="10" width="140" height="130" as="geometry" />
        </mxCell>
        <mxCell id="eUNMecRaQqSU6E6CGB5E-24" value="&lt;div&gt;- Homes&lt;/div&gt;&lt;div&gt;- Player Vaults&lt;/div&gt;&lt;div&gt;- Crate Keys&lt;/div&gt;&lt;div&gt;- Donator perks/commands&lt;/div&gt;&lt;div&gt;- Tags/Prefixes&lt;br&gt;&lt;/div&gt;" style="text;strokeColor=none;fillColor=none;align=left;verticalAlign=middle;spacingLeft=4;spacingRight=4;overflow=hidden;points=[[0,0.5],[1,0.5]];portConstraint=eastwest;rotatable=0;whiteSpace=wrap;html=1;" vertex="1" parent="eUNMecRaQqSU6E6CGB5E-23">
          <mxGeometry y="30" width="140" height="100" as="geometry" />
        </mxCell>
        <mxCell id="eUNMecRaQqSU6E6CGB5E-27" value="Vote Party Rewards" style="swimlane;fontStyle=0;childLayout=stackLayout;horizontal=1;startSize=30;horizontalStack=0;resizeParent=1;resizeParentMax=0;resizeLast=0;collapsible=1;marginBottom=0;whiteSpace=wrap;html=1;" vertex="1" parent="WIyWlLk6GJQsqaUBKTNV-1">
          <mxGeometry x="390" y="162.5" width="140" height="90" as="geometry" />
        </mxCell>
        <mxCell id="eUNMecRaQqSU6E6CGB5E-28" value="&lt;div&gt;- Credits&lt;/div&gt;&lt;div&gt;- Keys&lt;br&gt;&lt;/div&gt;&lt;div&gt;- Custom items&lt;/div&gt;" style="text;strokeColor=none;fillColor=none;align=left;verticalAlign=middle;spacingLeft=4;spacingRight=4;overflow=hidden;points=[[0,0.5],[1,0.5]];portConstraint=eastwest;rotatable=0;whiteSpace=wrap;html=1;" vertex="1" parent="eUNMecRaQqSU6E6CGB5E-27">
          <mxGeometry y="30" width="140" height="60" as="geometry" />
        </mxCell>
      </root>
    </mxGraphModel>
  </diagram>
</mxfile>
